<svg xmlns="http://www.w3.org/2000/svg" xmlns:xlink="http://www.w3.org/1999/xlink" version="1.1" x="0px" y="0px" viewBox="0 0 203.3 244.7" style="enable-background:new 0 0 203.3 244.7;" xml:space="preserve">
<style type="text/css">
	.st0{display:none;}
	.st1{display:inline;fill:#F7F8FC;}
	.st2{display:inline;}
	.st3{fill:#F7F8FC;}
	.st4{fill:#FFFFFF;stroke:#ffcb04;stroke-width:10.0091;}
	.st5{fill:#fffff2;}
	.st6{fill:#f3e082;stroke:#ffcb04;stroke-width:10.0091;}
	.st7{fill:none;stroke:#ffcb04;stroke-width:10.0091;}
	.st8{fill:#fffff2;stroke:#ffcb04;stroke-width:10.0091;}
	.st9{fill:#FFFFFF;stroke:#ffcb04;stroke-width:10.0091;stroke-linejoin:round;}
	.st10{fill:#f3e082;}
	.st11{fill:#FFFFFF;}
	.st12{fill:none;stroke:#ffcb04;stroke-width:10.0091;stroke-linejoin:bevel;}
</style>
<g id="Layer_2">
</g>
<g id="Layer_3">
</g>
<g id="Layer_4">
	<g>
		<path class="st4" d="M24.7,78.1v28.4c0,4.6,3.7,8.3,8.3,8.3c4.6,0,8.3-3.7,8.3-8.3V78.1H24.7z" fill="#000000"/>
		<path class="st4" d="M163,78.1v28.4c0,4.6,3.7,8.3,8.3,8.3s8.3-3.7,8.3-8.3V78.1H163z" fill="#000000"/>
		<path class="st6" d="M5,244.7v-28.9C5,201,18.5,189,35.3,189H168c16.7,0,30.2,12,30.2,26.8v28.9" fill="#000000"/>
		<polygon class="st4" points="144.6,210.2 144.6,189 58.7,189 58.7,210.2 101.6,235.1   " fill="#000000"/>
		<polygon class="st4" points="127.1,200.1 101.6,214.8 76.2,200.1 76.2,144.5 101.6,144.5 127.1,144.5   " fill="#000000"/>
		<path class="st4" d="M162,40.4C162,20.9,146.2,5,126.7,5H76.1C56.6,5,40.7,20.9,40.7,40.4l-0.1,99.5l33.5,38.6h54.5l33.5-38.6    L162,40.4z" fill="#000000"/>
		<path class="st6" d="M101.3,114c-23.1,0-43.2,13.8-53.4,34l26.4,30.5h54.5l26-30C144.8,128,124.6,114,101.3,114z" fill="#000000"/>
		<path class="st4" d="M86.9,139.3c-0.1,0.5-0.1,1-0.1,1.5c0,7.6,6.1,13.7,13.7,13.7h1.8c7.5,0,13.7-6.1,13.7-13.7    c0-0.5,0-1-0.1-1.5H86.9z" fill="#000000"/>
		<g>
			<line class="st7" x1="74.3" y1="78.9" x2="63.5" y2="78.9" fill="#000000"/>
			<line class="st7" x1="139.3" y1="78.9" x2="128.4" y2="78.9" fill="#000000"/>
		</g>
		<polyline class="st7" points="113,63 113,99 89.7,99 89.7,63 62.2,63   " fill="#000000"/>
	</g>
</g>
</svg>