<svg xmlns="http://www.w3.org/2000/svg" xmlns:xlink="http://www.w3.org/1999/xlink" version="1.1" x="0px" y="0px" viewBox="0 0 180.9 244.3" style="enable-background:new 0 0 180.9 244.3;" xml:space="preserve">
<style type="text/css">
	.st0{display:none;}
	.st1{display:inline;fill:#F7F8FC;}
	.st2{display:inline;}
	.st3{fill:#F7F8FC;}
	.st4{fill:#FFFFFF;stroke:#ffcb04;stroke-width:10.0091;}
	.st5{fill:#f3e082;}
	.st6{fill:#C5E1F9;stroke:#ffcb04;stroke-width:10.0091;}
	.st7{fill:none;stroke:#ffcb04;stroke-width:10.0091;}
	.st8{fill:#f3e082;stroke:#ffcb04;stroke-width:10.0091;}
	.st9{fill:#FFFFFF;stroke:#ffcb04;stroke-width:10.0091;stroke-linejoin:round;}
	.st10{fill:#C5E1F9;}
	.st11{fill:#FFFFFF;}
	.st12{fill:none;stroke:#ffcb04;stroke-width:10.0091;stroke-linejoin:bevel;}
</style>
<g id="Layer_2">
</g>
<g id="Layer_3">
</g>
<g id="Layer_4">
	<g>
		<path class="st8" d="M149.4,176.6c0,26.3-21.3,47.6-47.5,47.6h-20c-26.2,0-47.5-21.3-47.5-47.6V90.2c0-26.3,21.3-47.6,47.5-47.6    h20c26.2,0,47.5,21.3,47.5,47.6V176.6z" fill="#000000"/>
		<path class="st4" d="M176.6,241.8c-14.8-24.6-47.8-41.8-86.2-41.8c-38.3,0-71.3,17.1-86.2,41.8" fill="#000000"/>
		<path class="st4" d="M166.7,130.3c0,11.3-9.1,20.4-20.3,20.4H37.5c-11.2,0-20.3-9.1-20.3-20.4l0,0c0-11.3,9.1-20.4,20.3-20.4    h108.9C157.6,109.9,166.7,119,166.7,130.3L166.7,130.3z" fill="#000000"/>
		<path class="st4" d="M90.5,226.1c-11.7,0-21.2-9.5-21.2-21.3v-114c0-11.8,9.5-21.3,21.2-21.3l0,0c11.7,0,21.2,9.5,21.2,21.3v114    C111.7,216.6,102.2,226.1,90.5,226.1L90.5,226.1z" fill="#000000"/>
		<path class="st4" d="M149.4,139c0,26.3-21.3,47.6-47.5,47.6h-20c-26.2,0-47.5-21.3-47.5-47.6V52.6C34.4,26.3,55.7,5,81.9,5h20    c26.2,0,47.5,21.3,47.5,47.6V139z" fill="#000000"/>
		<path class="st8" d="M101.9,5h-20C55.7,5,34.4,26.3,34.4,52.6v57c23.7-2.2,46.3-24.3,57.5-56.1c11.2,31.7,33.8,53.9,57.5,56.1v-57    C149.4,26.3,128.1,5,101.9,5z" fill="#000000"/>
		<path class="st7" d="M50.8,119c0-4.9,6.5-8.8,14.6-8.8c8.1,0,14.6,3.9,14.6,8.8" fill="#000000"/>
		<path class="st7" d="M98.3,119c0-4.9,6.5-8.8,14.6-8.8c8.1,0,14.6,3.9,14.6,8.8" fill="#000000"/>
		<path class="st4" d="M71.5,140.3v8.8c0,6.9,5.6,12.5,12.5,12.5h8.7c6.9,0,12.5-5.6,12.5-12.5v-8.8H71.5z" fill="#000000"/>
	</g>
</g>
</svg>