<svg xmlns="http://www.w3.org/2000/svg" xmlns:xlink="http://www.w3.org/1999/xlink" version="1.1" x="0px" y="0px" viewBox="0 0 193.5 248.8" style="enable-background:new 0 0 193.5 248.8;" xml:space="preserve">
<style type="text/css">
	.st0{display:none;}
	.st1{display:inline;fill:#F7F8FC;}
	.st2{display:inline;}
	.st3{fill:#F7F8FC;}
	.st4{fill:#FFFFFF;stroke:#ffcb04;stroke-width:10.0091;}
	.st5{fill:#9ac7f7;}
	.st6{fill:#f3e082;stroke:#ffcb04;stroke-width:10.0091;}
	.st7{fill:none;stroke:#ffcb04;stroke-width:10.0091;}
	.st8{fill:#9ac7f7;stroke:#ffcb04;stroke-width:10.0091;}
	.st9{fill:#FFFFFF;stroke:#ffcb04;stroke-width:10.0091;stroke-linejoin:round;}
	.st10{fill:#f3e082;}
	.st11{fill:#FFFFFF;}
	.st12{fill:none;stroke:#ffcb04;stroke-width:10.0091;stroke-linejoin:bevel;}
</style>
<g id="Layer_2">
	<g class="st0">
		<rect x="12.9" y="-47.1" class="st1" width="100" height="100" fill="#000000"/>
		<rect x="166.3" y="-47.1" class="st1" width="100" height="100" fill="#000000"/>
		<g class="st2">
			<rect x="12.9" y="106.3" class="st3" width="100" height="100" fill="#000000"/>
			<rect x="166.3" y="106.3" class="st3" width="100" height="100" fill="#000000"/>
		</g>
	</g>
</g>
<g id="Layer_3">
</g>
<g id="Layer_4">
	<g>
		<path class="st6" d="M25,248.8v-30.1c0-11.1,9-20,20-20h110c11,0,20,9,20,20v30.1" fill="#000000"/>
		<path class="st4" d="M61.2,248.8V221c0-10.2,4.6-18.5,10.3-18.5h56.8c5.7,0,10.3,8.3,10.3,18.5v27.8" fill="#000000"/>
		<rect x="82.5" y="153.6" class="st4" width="35" height="65.1" fill="#000000"/>
		<path class="st6" d="M88.3,66.8c0,24-18.6,43.4-41.7,43.4C23.7,110.2,5,90.8,5,66.8c0-24,18.6-43.4,41.7-43.4    C69.7,23.3,88.3,42.8,88.3,66.8z" fill="#000000"/>
		<path class="st6" d="M63.3,114.1c0,15.3-11.9,27.8-26.7,27.8S10,129.5,10,114.1c0-15.3,11.9-27.8,26.7-27.8S63.3,98.8,63.3,114.1z    " fill="#000000"/>
		<path class="st4" d="M68.3,92.4c0,15.3-11.9,27.8-26.7,27.8S15,107.8,15,92.4c0-15.3,11.9-27.8,26.7-27.8S68.3,77.1,68.3,92.4z" fill="#000000"/>
		<path class="st6" d="M173.3,114.1c0,15.3-11.9,27.8-26.7,27.8S120,129.5,120,114.1c0-15.3,11.9-27.8,26.7-27.8    S173.3,98.8,173.3,114.1z" fill="#000000"/>
		<path class="st4" d="M149.8,118.3c0,32.9-26.6,59.6-59.4,59.6l0,0c-32.8,0-59.4-26.7-59.4-59.6V70.7c0-32.9,26.6-59.6,59.4-59.6    l0,0c32.8,0,59.4,26.7,59.4,59.6V118.3z" fill="#000000"/>
		<path class="st6" d="M144.1,27l42.3,42.4l-7.7,7.7c-23.4,23.5-61.4,23.5-84.8,0L41,24.1C70.5-2.3,115.8-1.3,144.1,27z" fill="#000000"/>
		<path class="st7" d="M49.6,96.4c0-8.1,6.5-14.6,14.6-14.6c8.1,0,14.6,6.6,14.6,14.6" fill="#000000"/>
		<line class="st7" x1="77.5" y1="138.6" x2="100" y2="138.6" fill="#000000"/>
		<line class="st7" x1="86.2" y1="234.6" x2="113.7" y2="234.6" fill="#000000"/>
		<line class="st7" x1="100" y1="232.5" x2="100" y2="247.2" fill="#000000"/>
	</g>
</g>
</svg>